<svg xmlns="http://www.w3.org/2000/svg" viewBox="0 0 1575.76 431.75"><defs><style>.cls-1{fill:#16c784;}.cls-2{fill:#1d1d1d;}</style></defs><title>Asset 1</title><g id="Layer_2" data-name="Layer 2"><g id="Layer_1-2" data-name="Layer 1"><path class="cls-1" d="M454,363.6,376.65,225.91l-21.74,34.22,68,121.43a9.22,9.22,0,0,1,1.33,4.71,9.81,9.81,0,0,1-2.76,6.7,9.17,9.17,0,0,1-2.93,2.06,9.3,9.3,0,0,1-3.84.77H246.49L344,244.88l21.92-33.94,14.63-22.63,1.22-1.95h0L437,100.9l4.39-6.82-30.2-19.52L406.35,82,358.52,156l0,0L309.73,232l-.18-.1L210.05,386l-6.27,9.83-6.35,9.94-16.6,26H414.68A45.37,45.37,0,0,0,454,363.6ZM127,395.8H45.5a9.47,9.47,0,0,1-3.86-.77A9.77,9.77,0,0,1,36,386.27a9,9,0,0,1,1.3-4.69L221.86,61.84a9.19,9.19,0,0,1,3.56-3.56,9.42,9.42,0,0,1,4.67-1.18,9.53,9.53,0,0,1,4.67,1.18,9.33,9.33,0,0,1,3.53,3.56l74.88,133.4,21.89-34L269.42,43.86a45.38,45.38,0,0,0-78.69,0L6.15,363.6a45.22,45.22,0,0,0,6.59,54.23A44.79,44.79,0,0,0,27.22,428a45.78,45.78,0,0,0,18.28,3.79H127a17.88,17.88,0,0,0,13.7-6.35.52.52,0,0,0,.15-.17A18,18,0,0,0,127,395.8Z"/><path class="cls-1" d="M462.84,1.58,383,44.55a13,13,0,0,0-.68,22.57l77.15,47.68a13,13,0,0,0,19.89-10.7l2.72-90.65A13,13,0,0,0,462.84,1.58Z"/><path class="cls-1" d="M205.7,262.17l-92,141.16a17.56,17.56,0,0,0,29.42,19.18l92-141.16a17.56,17.56,0,1,0-29.41-19.18Z"/><path class="cls-2" d="M632.59,318.25l56.87-164.2h28.72L644.35,353.11H621.1L547.41,154.05H576Z"/><path class="cls-2" d="M868.56,261.1H782.29v70.55H882.5v21.46H756V154.05H881.13v21.47H782.29v64.12h86.27Z"/><path class="cls-2" d="M1036.3,301H952.9l-18.73,52.09H907.1l76-199.06h23l76.16,199.06H1055.3Zm-75.47-21.46h67.68L994.6,186.45Z"/><path class="cls-2" d="M1146.62,331.65H1241v21.46H1120.23V154.05h26.39Z"/><path class="cls-2" d="M1382,175.52h-64V353.11h-26.11V175.52h-63.85V154.05h154Z"/><path class="cls-2" d="M1575.76,353.11h-26.39v-92H1449v92h-26.25V154.05H1449v85.59h100.35V154.05h26.39Z"/></g></g></svg>